<svg xmlns="http://www.w3.org/2000/svg" width="776" height="396" viewBox="0 0 776 396" color="#1A1A19" role="img" aria-label="Memory and storage tier icon set with latency and cost per terabyte">
  <title>Memory and storage tier icon set with latency and cost per terabyte</title>
  <desc>Eight monochrome memory and storage icons from HBM to tape, annotated with approximate access latency and cost per usable terabyte.</desc>
  <defs>
    <symbol id="g-hbm" viewBox="0 0 72 44">
    <rect x="4" y="35" width="64" height="6" rx="1" fill="none" stroke="currentColor" stroke-width="1.4"/>
    <rect x="14" y="27" width="44" height="6" rx="1" fill="currentColor" opacity=".32"/>
    <rect x="14" y="27" width="44" height="6" rx="1" fill="none" stroke="currentColor" stroke-width="1.3"/>
    <rect x="14" y="20" width="44" height="5" rx="1" fill="currentColor" opacity=".18"/>
    <rect x="14" y="20" width="44" height="5" rx="1" fill="none" stroke="currentColor" stroke-width="1.3"/>
    <rect x="14" y="13" width="44" height="5" rx="1" fill="currentColor" opacity=".18"/>
    <rect x="14" y="13" width="44" height="5" rx="1" fill="none" stroke="currentColor" stroke-width="1.3"/>
    <rect x="14" y="6" width="44" height="5" rx="1" fill="currentColor" opacity=".18"/>
    <rect x="14" y="6" width="44" height="5" rx="1" fill="none" stroke="currentColor" stroke-width="1.3"/>
    <line x1="26" y1="8" x2="26" y2="33" stroke="currentColor" stroke-width="1" opacity=".5"/>
    <line x1="36" y1="8" x2="36" y2="33" stroke="currentColor" stroke-width="1" opacity=".5"/>
    <line x1="46" y1="8" x2="46" y2="33" stroke="currentColor" stroke-width="1" opacity=".5"/>
    </symbol>
    <symbol id="g-dram" viewBox="0 0 72 44">
    <rect x="4" y="8" width="64" height="22" rx="2" fill="none" stroke="currentColor" stroke-width="1.6"/>
    <rect x="9" y="13" width="11" height="12" rx="1" fill="currentColor" opacity=".32"/>
    <rect x="25" y="13" width="11" height="12" rx="1" fill="currentColor" opacity=".32"/>
    <rect x="41" y="13" width="11" height="12" rx="1" fill="currentColor" opacity=".32"/>
    <rect x="57" y="13" width="11" height="12" rx="1" fill="currentColor" opacity=".32"/>
    <rect x="4" y="30" width="26" height="4" rx="1" fill="currentColor"/>
    <rect x="36" y="30" width="32" height="4" rx="1" fill="currentColor"/>
    </symbol>
    <symbol id="g-cxl" viewBox="0 0 72 44">
    <rect x="3" y="12" width="19" height="19" rx="2" fill="none" stroke="currentColor" stroke-width="1.6"/>
    <rect x="8" y="17" width="9" height="9" rx="1" fill="currentColor" opacity=".32"/>
    <line x1="9" y1="12" x2="9" y2="8" stroke="currentColor" stroke-width="1.2"/>
    <line x1="16" y1="12" x2="16" y2="8" stroke="currentColor" stroke-width="1.2"/>
    <line x1="9" y1="31" x2="9" y2="35" stroke="currentColor" stroke-width="1.2"/>
    <line x1="16" y1="31" x2="16" y2="35" stroke="currentColor" stroke-width="1.2"/>
    <line x1="26" y1="17" x2="44" y2="17" stroke="currentColor" stroke-width="1.4" stroke-linecap="round"/>
    <path d="M41 14l3.4 3-3.4 3" fill="none" stroke="currentColor" stroke-width="1.4" stroke-linecap="round" stroke-linejoin="round"/>
    <line x1="44" y1="26" x2="26" y2="26" stroke="currentColor" stroke-width="1.4" stroke-linecap="round"/>
    <path d="M29 23l-3.4 3 3.4 3" fill="none" stroke="currentColor" stroke-width="1.4" stroke-linecap="round" stroke-linejoin="round"/>
    <rect x="48" y="9" width="21" height="25" rx="2" fill="none" stroke="currentColor" stroke-width="1.6"/>
    <rect x="52" y="13" width="13" height="4" rx="1" fill="currentColor" opacity=".32"/>
    <rect x="52" y="19.5" width="13" height="4" rx="1" fill="currentColor" opacity=".32"/>
    <rect x="52" y="26" width="13" height="4" rx="1" fill="currentColor" opacity=".32"/>
    </symbol>
    <symbol id="g-tlc-nvme" viewBox="0 0 72 44">
    <rect x="2" y="17" width="6" height="10" rx="1" fill="currentColor"/>
    <rect x="8" y="14" width="58" height="16" rx="2" fill="none" stroke="currentColor" stroke-width="1.6"/>
    <rect x="13" y="18" width="15" height="8" rx="1" fill="currentColor" opacity=".32"/>
    <rect x="31" y="18" width="15" height="8" rx="1" fill="currentColor" opacity=".32"/>
    <rect x="49" y="18" width="15" height="8" rx="1" fill="currentColor" opacity=".32"/>
    <circle cx="69" cy="22" r="2.6" fill="none" stroke="currentColor" stroke-width="1.4"/>
    </symbol>
    <symbol id="g-qlc-nvme" viewBox="0 0 72 44">
    <rect x="2" y="17" width="6" height="10" rx="1" fill="currentColor"/>
    <rect x="8" y="14" width="58" height="16" rx="2" fill="none" stroke="currentColor" stroke-width="1.6"/>
    <rect x="13" y="18" width="11" height="8" rx="1" fill="currentColor" opacity=".32"/>
    <rect x="27" y="18" width="11" height="8" rx="1" fill="currentColor" opacity=".32"/>
    <rect x="41" y="18" width="11" height="8" rx="1" fill="currentColor" opacity=".32"/>
    <rect x="55" y="18" width="11" height="8" rx="1" fill="currentColor" opacity=".32"/>
    <circle cx="69" cy="22" r="2.6" fill="none" stroke="currentColor" stroke-width="1.4"/>
    </symbol>
    <symbol id="g-pod-flash" viewBox="0 0 72 44">
    <rect x="6" y="4" width="60" height="36" rx="3" fill="none" stroke="currentColor" stroke-width="1.6"/>
    <rect x="11" y="9" width="44" height="5" rx="1.5" fill="currentColor" opacity=".32"/>
    <rect x="11" y="17" width="44" height="5" rx="1.5" fill="currentColor" opacity=".32"/>
    <rect x="11" y="25" width="44" height="5" rx="1.5" fill="currentColor" opacity=".32"/>
    <rect x="11" y="33" width="44" height="5" rx="1.5" fill="currentColor" opacity=".32"/>
    <circle cx="60" cy="11.5" r="1.6" fill="currentColor"/>
    <circle cx="60" cy="19.5" r="1.6" fill="currentColor"/>
    <circle cx="60" cy="27.5" r="1.6" fill="currentColor"/>
    <circle cx="60" cy="35.5" r="1.6" fill="currentColor"/>
    </symbol>
    <symbol id="g-nearline-hdd" viewBox="0 0 72 44">
    <circle cx="34" cy="23" r="18" fill="none" stroke="currentColor" stroke-width="1.6"/>
    <circle cx="34" cy="23" r="11.5" fill="none" stroke="currentColor" stroke-width="1" opacity=".45"/>
    <circle cx="34" cy="23" r="5" fill="currentColor" opacity=".32"/>
    <circle cx="34" cy="23" r="5" fill="none" stroke="currentColor" stroke-width="1.4"/>
    <line x1="60" y1="7" x2="42" y2="18" stroke="currentColor" stroke-width="2.4" stroke-linecap="round"/>
    <circle cx="60" cy="7" r="3.2" fill="currentColor"/>
    </symbol>
    <symbol id="g-tape" viewBox="0 0 72 44">
    <rect x="4" y="6" width="64" height="32" rx="3" fill="none" stroke="currentColor" stroke-width="1.6"/>
    <line x1="22" y1="13" x2="50" y2="13" stroke="currentColor" stroke-width="1.8" stroke-linecap="round"/>
    <circle cx="22" cy="23" r="9" fill="currentColor" opacity=".18"/>
    <circle cx="22" cy="23" r="9" fill="none" stroke="currentColor" stroke-width="1.4"/>
    <circle cx="50" cy="23" r="9" fill="currentColor" opacity=".18"/>
    <circle cx="50" cy="23" r="9" fill="none" stroke="currentColor" stroke-width="1.4"/>
    <circle cx="22" cy="23" r="3" fill="currentColor"/>
    <circle cx="50" cy="23" r="3" fill="currentColor"/>
    </symbol>
    <symbol id="m-lat" viewBox="0 0 16 16">
    <circle cx="8" cy="8" r="6.4" fill="none" stroke="currentColor" stroke-width="1.4"/>
    <path d="M8 4.4V8.3l3 1.8" fill="none" stroke="currentColor" stroke-width="1.4" stroke-linecap="round" stroke-linejoin="round"/>
    </symbol>
    <symbol id="m-cost" viewBox="0 0 16 16">
    <path d="M8.9 1.7h4.4a1 1 0 0 1 1 1v4.4a1 1 0 0 1-.3.7l-6.5 6.5a1 1 0 0 1-1.4 0L1.7 9.9a1 1 0 0 1 0-1.4l6.5-6.5a1 1 0 0 1 .7-.3z" fill="none" stroke="currentColor" stroke-width="1.3" stroke-linejoin="round"/>
    <circle cx="11.2" cy="4.8" r="1.3" fill="currentColor"/>
    </symbol>
  </defs>
  <g>
    <rect x="20" y="20" width="172" height="170" rx="10" fill="none" stroke="currentColor" stroke-width="1" opacity=".25"/>
    <use href="#g-hbm" x="70" y="36" width="72" height="44"/>
    <text x="106" y="104" text-anchor="middle" font-family="Inter, 'Helvetica Neue', Helvetica, Arial, sans-serif" font-size="14" font-weight="500" fill="currentColor">HBM</text>
    <line x1="36" y1="116" x2="176" y2="116" stroke="currentColor" stroke-width="1" opacity=".18"/>
    <use href="#m-lat" x="40" y="126" width="13" height="13" opacity=".7"/>
    <text x="60" y="136.5" font-family="Inter, 'Helvetica Neue', Helvetica, Arial, sans-serif" font-size="12.5" fill="currentColor" opacity=".78">~100 ns</text>
    <use href="#m-cost" x="40" y="150" width="13" height="13" opacity=".7"/>
    <text x="60" y="160.5" font-family="Inter, 'Helvetica Neue', Helvetica, Arial, sans-serif" font-size="12.5" fill="currentColor" opacity=".78">~$8,600/TB</text>
  </g>
  <g>
    <rect x="208" y="20" width="172" height="170" rx="10" fill="none" stroke="currentColor" stroke-width="1" opacity=".25"/>
    <use href="#g-dram" x="258" y="36" width="72" height="44"/>
    <text x="294" y="104" text-anchor="middle" font-family="Inter, 'Helvetica Neue', Helvetica, Arial, sans-serif" font-size="14" font-weight="500" fill="currentColor">DRAM</text>
    <line x1="224" y1="116" x2="364" y2="116" stroke="currentColor" stroke-width="1" opacity=".18"/>
    <use href="#m-lat" x="228" y="126" width="13" height="13" opacity=".7"/>
    <text x="248" y="136.5" font-family="Inter, 'Helvetica Neue', Helvetica, Arial, sans-serif" font-size="12.5" fill="currentColor" opacity=".78">~80 ns</text>
    <use href="#m-cost" x="228" y="150" width="13" height="13" opacity=".7"/>
    <text x="248" y="160.5" font-family="Inter, 'Helvetica Neue', Helvetica, Arial, sans-serif" font-size="12.5" fill="currentColor" opacity=".78">~$30,000/TB</text>
  </g>
  <g>
    <rect x="396" y="20" width="172" height="170" rx="10" fill="none" stroke="currentColor" stroke-width="1" opacity=".25"/>
    <use href="#g-cxl" x="446" y="36" width="72" height="44"/>
    <text x="482" y="104" text-anchor="middle" font-family="Inter, 'Helvetica Neue', Helvetica, Arial, sans-serif" font-size="14" font-weight="500" fill="currentColor">CXL</text>
    <line x1="412" y1="116" x2="552" y2="116" stroke="currentColor" stroke-width="1" opacity=".18"/>
    <use href="#m-lat" x="416" y="126" width="13" height="13" opacity=".7"/>
    <text x="436" y="136.5" font-family="Inter, 'Helvetica Neue', Helvetica, Arial, sans-serif" font-size="12.5" fill="currentColor" opacity=".78">~180 ns</text>
    <use href="#m-cost" x="416" y="150" width="13" height="13" opacity=".7"/>
    <text x="436" y="160.5" font-family="Inter, 'Helvetica Neue', Helvetica, Arial, sans-serif" font-size="12.5" fill="currentColor" opacity=".78">~$33,000/TB</text>
  </g>
  <g>
    <rect x="584" y="20" width="172" height="170" rx="10" fill="none" stroke="currentColor" stroke-width="1" opacity=".25"/>
    <use href="#g-tlc-nvme" x="634" y="36" width="72" height="44"/>
    <text x="670" y="104" text-anchor="middle" font-family="Inter, 'Helvetica Neue', Helvetica, Arial, sans-serif" font-size="14" font-weight="500" fill="currentColor">TLC-NVMe</text>
    <line x1="600" y1="116" x2="740" y2="116" stroke="currentColor" stroke-width="1" opacity=".18"/>
    <use href="#m-lat" x="604" y="126" width="13" height="13" opacity=".7"/>
    <text x="624" y="136.5" font-family="Inter, 'Helvetica Neue', Helvetica, Arial, sans-serif" font-size="12.5" fill="currentColor" opacity=".78">~80 µs</text>
    <use href="#m-cost" x="604" y="150" width="13" height="13" opacity=".7"/>
    <text x="624" y="160.5" font-family="Inter, 'Helvetica Neue', Helvetica, Arial, sans-serif" font-size="12.5" fill="currentColor" opacity=".78">~$580/TB</text>
  </g>
  <g>
    <rect x="20" y="206" width="172" height="170" rx="10" fill="none" stroke="currentColor" stroke-width="1" opacity=".25"/>
    <use href="#g-qlc-nvme" x="70" y="222" width="72" height="44"/>
    <text x="106" y="290" text-anchor="middle" font-family="Inter, 'Helvetica Neue', Helvetica, Arial, sans-serif" font-size="14" font-weight="500" fill="currentColor">QLC-NVMe</text>
    <line x1="36" y1="302" x2="176" y2="302" stroke="currentColor" stroke-width="1" opacity=".18"/>
    <use href="#m-lat" x="40" y="312" width="13" height="13" opacity=".7"/>
    <text x="60" y="322.5" font-family="Inter, 'Helvetica Neue', Helvetica, Arial, sans-serif" font-size="12.5" fill="currentColor" opacity=".78">~150 µs</text>
    <use href="#m-cost" x="40" y="336" width="13" height="13" opacity=".7"/>
    <text x="60" y="346.5" font-family="Inter, 'Helvetica Neue', Helvetica, Arial, sans-serif" font-size="12.5" fill="currentColor" opacity=".78">~$500/TB</text>
  </g>
  <g>
    <rect x="208" y="206" width="172" height="170" rx="10" fill="none" stroke="currentColor" stroke-width="1" opacity=".25"/>
    <use href="#g-pod-flash" x="258" y="222" width="72" height="44"/>
    <text x="294" y="290" text-anchor="middle" font-family="Inter, 'Helvetica Neue', Helvetica, Arial, sans-serif" font-size="14" font-weight="500" fill="currentColor">Pod-Flash</text>
    <line x1="224" y1="302" x2="364" y2="302" stroke="currentColor" stroke-width="1" opacity=".18"/>
    <use href="#m-lat" x="228" y="312" width="13" height="13" opacity=".7"/>
    <text x="248" y="322.5" font-family="Inter, 'Helvetica Neue', Helvetica, Arial, sans-serif" font-size="12.5" fill="currentColor" opacity=".78">~500 µs</text>
    <use href="#m-cost" x="228" y="336" width="13" height="13" opacity=".7"/>
    <text x="248" y="346.5" font-family="Inter, 'Helvetica Neue', Helvetica, Arial, sans-serif" font-size="12.5" fill="currentColor" opacity=".78">~$800/TB</text>
  </g>
  <g>
    <rect x="396" y="206" width="172" height="170" rx="10" fill="none" stroke="currentColor" stroke-width="1" opacity=".25"/>
    <use href="#g-nearline-hdd" x="446" y="222" width="72" height="44"/>
    <text x="482" y="290" text-anchor="middle" font-family="Inter, 'Helvetica Neue', Helvetica, Arial, sans-serif" font-size="14" font-weight="500" fill="currentColor">Near-Line HDD</text>
    <line x1="412" y1="302" x2="552" y2="302" stroke="currentColor" stroke-width="1" opacity=".18"/>
    <use href="#m-lat" x="416" y="312" width="13" height="13" opacity=".7"/>
    <text x="436" y="322.5" font-family="Inter, 'Helvetica Neue', Helvetica, Arial, sans-serif" font-size="12.5" fill="currentColor" opacity=".78">~8 ms</text>
    <use href="#m-cost" x="416" y="336" width="13" height="13" opacity=".7"/>
    <text x="436" y="346.5" font-family="Inter, 'Helvetica Neue', Helvetica, Arial, sans-serif" font-size="12.5" fill="currentColor" opacity=".78">~$22/TB</text>
  </g>
  <g>
    <rect x="584" y="206" width="172" height="170" rx="10" fill="none" stroke="currentColor" stroke-width="1" opacity=".25"/>
    <use href="#g-tape" x="634" y="222" width="72" height="44"/>
    <text x="670" y="290" text-anchor="middle" font-family="Inter, 'Helvetica Neue', Helvetica, Arial, sans-serif" font-size="14" font-weight="500" fill="currentColor">Tape</text>
    <line x1="600" y1="302" x2="740" y2="302" stroke="currentColor" stroke-width="1" opacity=".18"/>
    <use href="#m-lat" x="604" y="312" width="13" height="13" opacity=".7"/>
    <text x="624" y="322.5" font-family="Inter, 'Helvetica Neue', Helvetica, Arial, sans-serif" font-size="12.5" fill="currentColor" opacity=".78">~60 s</text>
    <use href="#m-cost" x="604" y="336" width="13" height="13" opacity=".7"/>
    <text x="624" y="346.5" font-family="Inter, 'Helvetica Neue', Helvetica, Arial, sans-serif" font-size="12.5" fill="currentColor" opacity=".78">~$10/TB</text>
  </g>
</svg>
